<?xml version="1.0" encoding="iso-8859-1"?>
<!-- Uploaded to: SVG Repo, www.svgrepo.com, Generator: SVG Repo Mixer Tools -->
<svg fill="#000000" height="800px" width="800px" version="1.1" id="Layer_1" xmlns="http://www.w3.org/2000/svg" xmlns:xlink="http://www.w3.org/1999/xlink" 
	 viewBox="0 0 511.999 511.999" xml:space="preserve">
<g>
	<g>
		<path d="M506.577,114.803L259.098,18.287c-1.924-0.75-4.056-0.776-5.995-0.073L5.616,107.919
			c-4.422,1.602-6.706,6.484-5.104,10.905c1.602,4.422,6.484,6.706,10.905,5.104l31.065-11.26v364.599H17.268
			c-4.702,0-8.514,3.812-8.514,8.514s3.812,8.514,8.514,8.514h477.464c4.702,0,8.514-3.812,8.514-8.514s-3.812-8.514-8.514-8.514
			h-25.204V288.091c0-4.702-3.812-8.514-8.514-8.514c-4.702,0-8.514,3.812-8.514,8.514v189.176h-76.997v-17.505h12.132
			c4.702,0,8.514-3.812,8.514-8.514v-31.006c0-4.702-3.812-8.514-8.514-8.514h-3.146v-62.953h20.364
			c4.702,0,8.514-3.812,8.514-8.514v-53.32c0-4.702-3.812-8.514-8.514-8.514h-20.364v-18.149c0-4.702-3.812-8.514-8.514-8.514
			h-28.166V230.19c0-4.702-3.812-8.514-8.514-8.514h-36.659c-4.702,0-8.514,3.812-8.514,8.514v21.574h-11.278V230.19
			c0-4.702-3.812-8.514-8.514-8.514h-36.657c-4.702,0-8.514,3.812-8.514,8.514v21.574h-11.278V230.19
			c0-4.702-3.812-8.514-8.514-8.514h-36.659c-4.702,0-8.514,3.812-8.514,8.514v21.574h-28.166c-4.702,0-8.514,3.812-8.514,8.514
			v18.149h-20.365c-4.702,0-8.514,3.812-8.514,8.514v53.32c0,4.702,3.812,8.514,8.514,8.514h20.367v62.953h-3.149
			c-4.702,0-8.514,3.812-8.514,8.514v31.006c0,4.702,3.812,8.514,8.514,8.514h12.132v17.505H59.51V186.002h54.214
			c4.702,0,8.514-3.812,8.514-8.514s-3.812-8.514-8.514-8.514H59.51v-62.477l196.385-71.182l196.605,76.676v56.982H139.455
			c-4.702,0-8.514,3.812-8.514,8.514c0,4.702,3.812,8.514,8.514,8.514h313.045v76.358c0,4.702,3.812,8.514,8.514,8.514
			s8.514-3.812,8.514-8.514V118.632l30.861,12.036c1.017,0.396,2.063,0.585,3.092,0.585c3.406,0,6.622-2.058,7.934-5.422
			C513.124,121.449,510.958,116.513,506.577,114.803z M384.49,295.455h11.849v36.292H384.49V295.455z M127.514,331.748h-11.853
			v-36.292h11.853V331.748z M190.737,477.267h-37.211v-17.505h37.211V477.267z M304.234,477.267h-96.469v-17.505h96.469V477.267z
			 M358.475,477.269h-37.213v-17.505h37.213V477.269z M311.151,238.706h19.63v13.06h-19.63V238.706z M274.33,268.795h28.307h36.659
			h28.166v18.07h-0.001c0,0.026-0.003,0.051-0.003,0.077v39.251H264.515v-57.399H274.33z M246.187,238.706h19.629v13.06h-19.629
			V238.706z M200.852,238.706v13.06h-19.63v-13.06H200.852z M144.544,286.941c0-0.003,0-0.007,0-0.011v-18.137h28.164v0.001h36.659
			h28.307h9.815v57.399H144.544V286.941z M144.542,343.221h0.001h222.919v68.507h-47.96v-53.693c0-4.702-3.812-8.514-8.514-8.514
			H201.013c-4.702,0-8.514,3.812-8.514,8.514v12.549c0,4.702,3.812,8.514,8.514,8.514s8.514-3.812,8.514-8.514v-4.035h92.945v45.178
			h-92.945v-16.359c0-4.702-3.812-8.514-8.514-8.514s-8.514,3.812-8.514,8.514v16.359h-47.957V343.221z M132.879,442.734v-13.978
			h68.135h109.973h68.134v13.978h-12.132h-54.241H199.251h-54.24H132.879z"/>
	</g>
</g>
<g>
	<g>
		<path d="M352.752,385.404h-18.146c-4.702,0-8.514,3.812-8.514,8.514s3.811,8.514,8.514,8.514h18.146
			c4.702,0,8.514-3.812,8.514-8.514S357.454,385.404,352.752,385.404z"/>
	</g>
</g>
<g>
	<g>
		<path d="M177.395,385.404h-18.146c-4.702,0-8.514,3.812-8.514,8.514s3.812,8.514,8.514,8.514h18.146
			c4.702,0,8.514-3.812,8.514-8.514S182.097,385.404,177.395,385.404z"/>
	</g>
</g>
<g>
	<g>
		<path d="M252.78,61.103c-2.539-0.623-5.225-0.044-7.284,1.57c-2.058,1.614-3.26,4.084-3.26,6.699l-0.001,0.291
			c-0.037,7.444-3.524,14.398-9.565,19.079c-9.913,7.681-15.417,19.752-14.725,32.288c1.084,19.577,17.297,35.367,36.911,35.946
			c0.388,0.011,0.775,0.017,1.161,0.017c9.972,0,19.355-3.798,26.534-10.768c7.458-7.242,11.566-16.953,11.566-27.347
			C294.116,81.2,267.077,64.611,252.78,61.103z M270.689,134.008c-4.124,4.004-9.565,6.118-15.33,5.946
			c-10.846-0.32-19.811-9.047-20.409-19.865c-0.386-6.949,2.662-13.635,8.151-17.888c6.942-5.379,11.887-12.57,14.362-20.62
			c1.838,1.101,3.812,2.47,5.768,4.154c9.195,7.917,13.858,19.067,13.858,33.143C277.089,124.627,274.816,130,270.689,134.008z"/>
	</g>
</g>
</svg>